<?xml version="1.0" encoding="utf-8"?>
<!-- Generator: Adobe Illustrator 16.0.0, SVG Export Plug-In . SVG Version: 6.00 Build 0)  -->
<!DOCTYPE svg PUBLIC "-//W3C//DTD SVG 1.1//EN" "http://www.w3.org/Graphics/SVG/1.1/DTD/svg11.dtd">
<svg version="1.1" id="Ebene_1" xmlns="http://www.w3.org/2000/svg" xmlns:xlink="http://www.w3.org/1999/xlink" x="0px" y="0px"
	 width="64.8px" height="103.3px" viewBox="0 0 64.8 103.3" enable-background="new 0 0 64.8 103.3" xml:space="preserve">
<g>
	<path fill="#FFFFFF" d="M61.8,3v95.6L32.3,84.8L3,98.6V3H61.8 M22.8,63l9.6-5.1L42,63l-1.8-10.7l7.8-7.6l-10.8-1.6l-4.8-9.7
		l-4.8,9.7l-10.8,1.6l7.8,7.6L22.8,63 M64.8,0h-3H3H0v3v95.6v4.7l4.3-2l28.1-13.2l28.2,13.2l4.3,2v-4.7V3V0L64.8,0z M23.3,46.8
		l4.7-0.7l1.6-0.2l0.7-1.4l2.1-4.3l2.1,4.3l0.7,1.4l1.6,0.2l4.7,0.7l-3.4,3.3L37,51.3l0.3,1.6l0.8,4.7l-4.2-2.2l-1.4-0.7L31,55.3
		l-4.2,2.2l0.8-4.7l0.3-1.6l-1.1-1.1L23.3,46.8L23.3,46.8z"/>
</g>
<g>
</g>
<g>
</g>
<g>
</g>
<g>
</g>
<g>
</g>
<g>
</g>
</svg>
