<?xml version="1.0" encoding="utf-8"?>
<!-- Generator: Adobe Illustrator 16.0.0, SVG Export Plug-In . SVG Version: 6.00 Build 0)  -->
<!DOCTYPE svg PUBLIC "-//W3C//DTD SVG 1.1//EN" "http://www.w3.org/Graphics/SVG/1.1/DTD/svg11.dtd">
<svg version="1.1" id="Ebene_1" xmlns="http://www.w3.org/2000/svg" xmlns:xlink="http://www.w3.org/1999/xlink" x="0px" y="0px"
	 width="64.8px" height="103.3px" viewBox="0 0 64.8 103.3" enable-background="new 0 0 64.8 103.3" xml:space="preserve">
<g>
	<path d="M61.8,3v95.6L32.3,84.8L3,98.6V3H61.8 M22.8,63l9.6-5.1L42,63L40.201,52.3L48,44.7l-10.799-1.6L32.4,33.4l-4.8,9.7
		l-10.8,1.6l7.8,7.6L22.8,63 M64.8,0h-3H3H0v3v95.6v4.7l4.3-2l28.1-13.2l28.2,13.2l4.3,2v-4.7V3V0H64.8z M23.3,46.8l4.7-0.7l1.6-0.2
		l0.7-1.4l2.1-4.3l2.1,4.3l0.701,1.4l1.6,0.2l4.699,0.7L38.1,50.1L37,51.3l0.301,1.6l0.8,4.7l-4.2-2.2l-1.4-0.699L31,55.3L26.8,57.5
		l0.8-4.699l0.3-1.6l-1.1-1.1L23.3,46.8L23.3,46.8z"/>
</g>
</svg>
