<?xml version="1.0" encoding="utf-8"?>
<!-- Generator: Adobe Illustrator 16.0.0, SVG Export Plug-In . SVG Version: 6.00 Build 0)  -->
<!DOCTYPE svg PUBLIC "-//W3C//DTD SVG 1.1//EN" "http://www.w3.org/Graphics/SVG/1.1/DTD/svg11.dtd">
<svg version="1.1" id="Ebene_1" xmlns="http://www.w3.org/2000/svg" xmlns:xlink="http://www.w3.org/1999/xlink" x="0px" y="0px"
	 width="97.2px" height="96.7px" viewBox="0 0 97.2 96.7" enable-background="new 0 0 97.2 96.7" xml:space="preserve">
<g>
	<g>
		<g>
			<path d="M64.4,16.3l16.399,16.4L30.6,83L14.1,66.5L64.4,16.3 M64.4,12.1l-2.101,2.1L12,64.4L9.9,66.5l2.1,2.1L28.4,85l2.1,2.1
				l2.1-2.1L82.799,34.8l2.101-2.1l-2.101-2.1L66.5,14.2L64.4,12.1L64.4,12.1z"/>
			<path d="M7.4,77l12.3,12.299L14,90.9c-1.1,0.3-3,0.8-4.1,1.2l-5.3,1.5c-0.2,0.1-0.4,0.1-0.5,0.1c-0.8,0-1.2-0.6-0.9-1.6
				l1.5-5.301c0.3-1.1,0.8-3,1.2-4.1L7.4,77 M5.9,71.299l-1.4,4.9l-1.6,5.6C2.5,83,2,84.9,1.7,86l-1.5,5.299
				C-0.2,92.7,0,94.1,0.8,95.1c0.7,1,1.9,1.6,3.2,1.6c0.4,0,0.9-0.1,1.4-0.199l5.3-1.5c1.1-0.301,3-0.9,4.1-1.201l5.6-1.6l4.9-1.4
				l-3.6-3.6L9.5,74.9L5.9,71.299L5.9,71.299z"/>
		</g>
		<g>
			<path d="M80,3C81.299,3,82.7,3.5,83.7,4.5l9,9c2,2,2,5.4,0,7.4l-3.6,3.6L72.7,8.1l3.6-3.6C77.299,3.5,78.6,3,80,3 M80,0
				C77.799,0,75.7,0.9,74.2,2.4L70.6,6l-2.1,2.1l2.1,2.1L87,26.6l2.1,2.1l2.1-2.1l3.6-3.6c3.201-3.2,3.201-8.4,0-11.7l-9-9
				C84.2,0.9,82.2,0,80,0L80,0z"/>
		</g>
	</g>
</g>
</svg>
